<svg width="40" height="40" viewBox="0 0 40 40" fill="none" xmlns="http://www.w3.org/2000/svg">
<path d="M31.7984 6.81178C29.3358 2.54647 24.9252 0 20 0C15.0749 0 10.6643 2.54647 8.20169 6.81178C5.73908 11.0771 5.73908 16.17 8.20169 20.4353L19.246 39.5647C19.4015 39.834 19.6889 40 20 40C20.3111 40 20.5985 39.834 20.754 39.5647L31.7983 20.4353C34.261 16.17 34.261 11.0771 31.7984 6.81178ZM30.2903 19.5647L20 37.3879L9.70974 19.5647C7.56196 15.8445 7.56196 11.4026 9.70974 7.68248C11.8576 3.96231 15.7044 1.74139 20 1.74139C24.2956 1.74139 28.1425 3.96231 30.2903 7.68248C32.4381 11.4026 32.438 15.8445 30.2903 19.5647Z" fill="black"/>
<path d="M20 3.77539C14.5593 3.77539 10.1328 8.20183 10.1328 13.6426C10.1328 19.0834 14.5593 23.5099 20 23.5099C25.4409 23.5099 29.8673 19.0834 29.8673 13.6426C29.8673 8.20174 25.4409 3.77539 20 3.77539ZM16.2013 20.8239V20.2417C16.2013 18.147 17.9055 16.4427 20.0003 16.4427C22.0951 16.4427 23.7993 18.1469 23.7993 20.2417V20.8237C22.6648 21.4263 21.3718 21.7685 20.0001 21.7685C18.6285 21.7684 17.3356 21.4264 16.2013 20.8239ZM20 9.8579C21.3352 9.8579 22.4216 10.9443 22.4216 12.2794C22.4216 13.6146 21.3353 14.701 20 14.701C18.6647 14.701 17.5785 13.6146 17.5785 12.2794C17.5785 10.9443 18.6648 9.8579 20 9.8579ZM25.5041 19.6147C25.3004 17.816 24.2324 16.2765 22.7264 15.4214C23.6055 14.6575 24.1629 13.5327 24.1629 12.2794C24.1629 9.98401 22.2955 8.1165 20 8.1165C17.7045 8.1165 15.8371 9.98401 15.8371 12.2794C15.8371 13.5328 16.3946 14.6577 17.2738 15.4216C15.7678 16.2768 14.6998 17.8163 14.4963 19.615C12.8851 18.1292 11.8742 16.0019 11.8742 13.6426C11.8742 9.16198 15.5194 5.51678 20 5.51678C24.4806 5.51678 28.1259 9.16198 28.1259 13.6426C28.1259 16.0017 27.115 18.1289 25.5041 19.6147Z" fill="black"/>
</svg>
